<svg width="1000" height="800" viewBox="0 0 1000 800" fill="none" xmlns="http://www.w3.org/2000/svg">
<g clip-path="url(#clip0_192_1227)">
<g clip-path="url(#clip1_192_1227)">
<path d="M1000 0H0V800H1000V0Z" fill="#3DA9FC"/>
<g filter="url(#filter0_f_192_1227)">
<path d="M355.555 820C574.628 820 752.222 606.888 752.222 344C752.222 81.1125 574.628 -132 355.555 -132C136.482 -132 -41.1113 81.1125 -41.1113 344C-41.1113 606.888 136.482 820 355.555 820Z" fill="#094067"/>
<path d="M76.6667 668C295.74 668 473.333 454.888 473.333 192C473.333 -70.8875 295.74 -284 76.6667 -284C-142.406 -284 -320 -70.8875 -320 192C-320 454.888 -142.406 668 76.6667 668Z" fill="#3DA9FC"/>
<path d="M865.555 596C1084.63 596 1262.22 382.888 1262.22 120C1262.22 -142.888 1084.63 -356 865.555 -356C646.482 -356 468.889 -142.888 468.889 120C468.889 382.888 646.482 596 865.555 596Z" fill="#094067"/>
<path d="M587.778 637.333C806.851 637.333 984.445 424.221 984.445 161.333C984.445 -101.554 806.851 -314.667 587.778 -314.667C368.705 -314.667 191.111 -101.554 191.111 161.333C191.111 424.221 368.705 637.333 587.778 637.333Z" fill="#094067"/>
<path d="M248.889 1037.33C467.962 1037.33 645.555 824.221 645.555 561.333C645.555 298.446 467.962 85.3334 248.889 85.3334C29.8159 85.3334 -147.778 298.446 -147.778 561.333C-147.778 824.221 29.8159 1037.33 248.889 1037.33Z" fill="#3DA9FC"/>
<path d="M377.778 568C596.851 568 774.445 354.888 774.445 92C774.445 -170.888 596.851 -384 377.778 -384C158.705 -384 -18.8887 -170.888 -18.8887 92C-18.8887 354.888 158.705 568 377.778 568Z" fill="#094067"/>
</g>
</g>
</g>
<defs>
<filter id="filter0_f_192_1227" x="-642" y="-706" width="2226.22" height="2065.33" filterUnits="userSpaceOnUse" color-interpolation-filters="sRGB">
<feFlood flood-opacity="0" result="BackgroundImageFix"/>
<feBlend mode="normal" in="SourceGraphic" in2="BackgroundImageFix" result="shape"/>
<feGaussianBlur stdDeviation="161" result="effect1_foregroundBlur_192_1227"/>
</filter>
<clipPath id="clip0_192_1227">
<rect width="1000" height="800" fill="white"/>
</clipPath>
<clipPath id="clip1_192_1227">
<rect width="1000" height="800" fill="white"/>
</clipPath>
</defs>
</svg>
