<svg width="44" height="44" viewBox="0 0 44 44" fill="none" xmlns="http://www.w3.org/2000/svg">
<g clip-path="url(#clip0_192_1237)">
<path d="M9.1665 23.8334C9.1665 22.8609 9.55281 21.9283 10.2404 21.2406C10.9281 20.553 11.8607 20.1667 12.8332 20.1667H31.1665C32.139 20.1667 33.0716 20.553 33.7592 21.2406C34.4469 21.9283 34.8332 22.8609 34.8332 23.8334V34.8334C34.8332 35.8058 34.4469 36.7384 33.7592 37.4261C33.0716 38.1137 32.139 38.5 31.1665 38.5H12.8332C11.8607 38.5 10.9281 38.1137 10.2404 37.4261C9.55281 36.7384 9.1665 35.8058 9.1665 34.8334V23.8334Z" stroke="#5F6C7B" stroke-width="2.75" stroke-linecap="round" stroke-linejoin="round"/>
<path d="M20.1665 29.3333C20.1665 29.8196 20.3597 30.2859 20.7035 30.6297C21.0473 30.9735 21.5136 31.1667 21.9998 31.1667C22.4861 31.1667 22.9524 30.9735 23.2962 30.6297C23.64 30.2859 23.8332 29.8196 23.8332 29.3333C23.8332 28.8471 23.64 28.3808 23.2962 28.037C22.9524 27.6932 22.4861 27.5 21.9998 27.5C21.5136 27.5 21.0473 27.6932 20.7035 28.037C20.3597 28.3808 20.1665 28.8471 20.1665 29.3333Z" stroke="#5F6C7B" stroke-width="2.75" stroke-linecap="round" stroke-linejoin="round"/>
<path d="M14.6665 20.1667V12.8333C14.6665 10.8884 15.4391 9.02315 16.8144 7.64788C18.1897 6.27262 20.0549 5.5 21.9998 5.5C23.9448 5.5 25.81 6.27262 27.1853 7.64788C28.5606 9.02315 29.3332 10.8884 29.3332 12.8333V20.1667" stroke="#5F6C7B" stroke-width="2.75" stroke-linecap="round" stroke-linejoin="round"/>
</g>
<defs>
<clipPath id="clip0_192_1237">
<rect width="44" height="44" fill="white"/>
</clipPath>
</defs>
</svg>
