<svg width="46" height="45" viewBox="0 0 46 45" fill="none" xmlns="http://www.w3.org/2000/svg">
<g clip-path="url(#clip0_294_53)">
<path d="M26.75 5.625V13.125C26.75 13.6223 26.9475 14.0992 27.2992 14.4508C27.6508 14.8025 28.1277 15 28.625 15H36.125" stroke="#FFFFFE" stroke-width="2.75" stroke-linecap="round" stroke-linejoin="round"/>
<path d="M32.375 39.375H13.625C12.6304 39.375 11.6766 38.9799 10.9733 38.2766C10.2701 37.5734 9.875 36.6196 9.875 35.625V9.375C9.875 8.38044 10.2701 7.42661 10.9733 6.72335C11.6766 6.02009 12.6304 5.625 13.625 5.625H26.75L36.125 15V35.625C36.125 36.6196 35.7299 37.5734 35.0266 38.2766C34.3234 38.9799 33.3696 39.375 32.375 39.375Z" stroke="#FFFFFE" stroke-width="2.75" stroke-linecap="round" stroke-linejoin="round"/>
<path d="M23 20.625V31.875V20.625Z" fill="#D9D9D9"/>
<path d="M23 20.625V31.875" stroke="#FFFFFE" stroke-width="2.75" stroke-linecap="round" stroke-linejoin="round"/>
<path d="M17.375 26.25H28.625" stroke="#FFFFFE" stroke-width="2.75" stroke-linecap="round" stroke-linejoin="round"/>
</g>
<defs>
<clipPath id="clip0_294_53">
<rect width="45" height="45" fill="white" transform="translate(0.5)"/>
</clipPath>
</defs>
</svg>
