<svg width="200" height="200" viewBox="0 0 200 200" fill="none" xmlns="http://www.w3.org/2000/svg">
<g clip-path="url(#clip0_192_1230)">
<path d="M25 100C25 109.849 26.9399 119.602 30.709 128.701C34.4781 137.801 40.0026 146.069 46.967 153.033C53.9314 159.997 62.1993 165.522 71.2987 169.291C80.3982 173.06 90.1509 175 100 175C109.849 175 119.602 173.06 128.701 169.291C137.801 165.522 146.069 159.997 153.033 153.033C159.997 146.069 165.522 137.801 169.291 128.701C173.06 119.602 175 109.849 175 100C175 90.1509 173.06 80.3982 169.291 71.2987C165.522 62.1993 159.997 53.9314 153.033 46.967C146.069 40.0026 137.801 34.4781 128.701 30.709C119.602 26.9399 109.849 25 100 25C90.1509 25 80.3982 26.9399 71.2987 30.709C62.1993 34.4781 53.9314 40.0026 46.967 46.967C40.0026 53.9314 34.4781 62.1993 30.709 71.2987C26.9399 80.3982 25 90.1509 25 100Z" stroke="#FFFFFE" stroke-width="4.16667" stroke-linecap="round" stroke-linejoin="round"/>
<path d="M75 83.3334C75 89.9638 77.6339 96.3226 82.3223 101.011C87.0107 105.699 93.3696 108.333 100 108.333C106.63 108.333 112.989 105.699 117.678 101.011C122.366 96.3226 125 89.9638 125 83.3334C125 76.703 122.366 70.3441 117.678 65.6557C112.989 60.9673 106.63 58.3334 100 58.3334C93.3696 58.3334 87.0107 60.9673 82.3223 65.6557C77.6339 70.3441 75 76.703 75 83.3334Z" stroke="#FFFFFE" stroke-width="4.16667" stroke-linecap="round" stroke-linejoin="round"/>
<path d="M51.3999 157.075C53.4625 150.21 57.683 144.193 63.4353 139.917C69.1876 135.64 76.1653 133.331 83.3332 133.333H116.667C123.844 133.331 130.83 135.645 136.586 139.932C142.343 144.218 146.562 150.248 148.617 157.125" stroke="#FFFFFE" stroke-width="4.16667" stroke-linecap="round" stroke-linejoin="round"/>
</g>
<defs>
<clipPath id="clip0_192_1230">
<rect width="200" height="200" fill="white"/>
</clipPath>
</defs>
</svg>
